<svg id="SvgjsSvg1001" width="288" height="288" xmlns="http://www.w3.org/2000/svg" version="1.1" xmlns:xlink="http://www.w3.org/1999/xlink" xmlns:svgjs="http://svgjs.com/svgjs"><defs id="SvgjsDefs1002"></defs><g id="SvgjsG1008"><svg xmlns="http://www.w3.org/2000/svg" viewBox="0 0 24 24" width="288" height="288"><path d="M16,14a1,1,0,0,1-.71-.29L12,10.41,8.71,13.71a1,1,0,0,1-1.41-1.41l4-4a1,1,0,0,1,1.41,0l4,4A1,1,0,0,1,16,14Z" fill="#ffffff" class="color000 svgShape"></path><path d="M12 20a1 1 0 0 1-1-1V9a1 1 0 0 1 2 0V19A1 1 0 0 1 12 20zM19 6H5A1 1 0 0 1 5 4H19a1 1 0 0 1 0 2z" fill="#ffffff" class="color000 svgShape"></path></svg></g></svg>