<svg id="SvgjsSvg1193" width="288" height="288" xmlns="http://www.w3.org/2000/svg" version="1.1" xmlns:xlink="http://www.w3.org/1999/xlink" xmlns:svgjs="http://svgjs.com/svgjs"><defs id="SvgjsDefs1194"></defs><g id="SvgjsG1195"><svg xmlns="http://www.w3.org/2000/svg" width="288" height="288" enable-background="new 0 0 100 100" viewBox="0 0 100 100"><polygon points="33.552 80 22.408 86 22.408 93 76.366 93 76.366 86 65.223 80" fill="#ffffff" class="color000 svgShape"></polygon><path d="M69.152,27.375l-2.754-6.5l-9.418-5.4L55.366,7l-8.136,8.475c0,0-5.285,1.42-11.4,5.856c0.617,0.525,1.295,1.13,2.059,1.849
	l1.82,1.713l-3.426,3.641l-1.82-1.712c-0.851-0.801-1.775-1.603-2.584-2.256c-2.064,1.906-4.113,4.182-5.995,6.874
	c1.71,0.775,3.43,1.68,4.687,2.369l2.19,1.203l-2.407,4.383l-2.19-1.203c-1.691-0.929-3.492-1.815-4.931-2.451
	c-1.566,2.877-2.635,5.56-3.34,8.012c3.289,0.744,6.25,1.958,6.428,2.031l2.311,0.954l-1.908,4.619l-2.311-0.952
	c-0.982-0.405-3.263-1.23-5.529-1.756c-0.84,6.898,1.168,11.014,1.168,11.014l8.865,3.503L38.408,75h21.344l9.479-13.125
	c0,0-8.094-4.838-12.114-11.875c-4-7-4.75-9-4.75-9l11,3h3l2.5,6h7.5l4.956-11.125L69.152,27.375z" fill="#ffffff" class="color000 svgShape"></path></svg></g></svg>