<svg id="SvgjsSvg1001" width="288" height="288" xmlns="http://www.w3.org/2000/svg" version="1.1" xmlns:xlink="http://www.w3.org/1999/xlink" xmlns:svgjs="http://svgjs.com/svgjs"><defs id="SvgjsDefs1002"></defs><g id="SvgjsG1008"><svg xmlns="http://www.w3.org/2000/svg" enable-background="new 0 0 64 64" viewBox="0 0 64 64" width="288" height="288"><path fill="#c0de8b" d="M6.2,27.5H5c-2.1,0-3.8,1.7-3.8,3.8v28.9C1.2,62.3,3,64,5,64H59c2.1,0,3.8-1.7,3.8-3.8V31.3
		c0-2.1-1.7-3.8-3.8-3.8h-1.1c-0.1-0.4-0.4-0.8-0.8-1.2L40.6,12c0.1-0.5,0.1-1,0.1-1.5c0-4.8-3.9-8.7-8.7-8.7
		c-4.8,0-8.7,3.9-8.7,8.7c0,0.5,0,1,0.1,1.5L7,26.4C6.6,26.7,6.4,27.1,6.2,27.5z M27.5,17.9c1.3,0.8,2.9,1.2,4.5,1.2
		c1.6,0,3.2-0.4,4.5-1.3l11,9.6h-31L27.5,17.9z" class="colorccc svgShape"></path><path fill="#f8f9f4" d="M6.2,25.7H5c-2.1,0-3.8,1.7-3.8,3.8v28.9c0,2.1,1.7,3.8,3.8,3.8H59c2.1,0,3.8-1.7,3.8-3.8V29.5
		c0-2.1-1.7-3.8-3.8-3.8h-1.1c-0.1-0.4-0.4-0.8-0.8-1.2L40.6,10.2c0.1-0.5,0.1-1,0.1-1.5C40.7,3.9,36.8,0,32,0
		c-4.8,0-8.7,3.9-8.7,8.7c0,0.5,0,1,0.1,1.5L7,24.6C6.6,24.9,6.4,25.3,6.2,25.7z M27.5,16.1c1.3,0.8,2.9,1.2,4.5,1.2
		c1.6,0,3.2-0.4,4.5-1.3l11,9.6h-31L27.5,16.1z" class="colorfff svgShape"></path><path fill="#b8d478" d="M7,32.8c0.5,0,0.9-0.4,0.9-0.9C7.9,31.4,7.5,31,7,31s-0.9,0.4-0.9,0.9C6.1,32.4,6.5,32.8,7,32.8z" class="colorb5b0b0 svgShape"></path><circle cx="57" cy="56.3" r=".9" fill="#b8d478" class="colorb5b0b0 svgShape"></circle><path fill="#b8d478" d="M59,28.4H5c-0.6,0-1.1,0.5-1.1,1.1v28.9c0,0.6,0.5,1.1,1.1,1.1H59c0.6,0,1.1-0.5,1.1-1.1V29.5
				C60.1,28.9,59.6,28.4,59,28.4z M7,30.1c1,0,1.8,0.8,1.8,1.8c0,1-0.8,1.8-1.8,1.8c-1,0-1.8-0.8-1.8-1.8C5.2,30.9,6,30.1,7,30.1z
				 M7,58.2c-1,0-1.8-0.8-1.8-1.8c0-1,0.8-1.8,1.8-1.8c1,0,1.8,0.8,1.8,1.8C8.8,57.3,8,58.2,7,58.2z M20.4,46.8
				c-0.3,0.9-0.7,1.6-1.2,2.3c-0.6,0.6-1.2,1.1-2,1.4c-0.8,0.3-1.7,0.5-2.8,0.5c-1.1,0-2-0.1-2.7-0.4c-0.8-0.3-1.4-0.7-2-1.3
				C9,48.7,8.6,48,8.4,47.2C8.1,46.3,8,45.3,8,44.1C8,43,8.1,42,8.4,41.1c0.3-0.9,0.7-1.6,1.2-2.2c0.6-0.6,1.2-1.1,2-1.4
				c0.8-0.3,1.7-0.5,2.8-0.5c1,0,1.9,0.1,2.7,0.4s1.4,0.7,2,1.3c0.5,0.6,0.9,1.3,1.2,2.1c0.3,0.9,0.4,1.9,0.4,3
				C20.8,44.9,20.6,45.9,20.4,46.8z M32,43.3c-0.2,0.6-0.6,1.1-1,1.5c-0.5,0.4-1,0.7-1.7,0.9C28.6,45.9,27.8,46,27,46h-1.1v4.3
				c0,0.1,0,0.1-0.1,0.2c0,0.1-0.1,0.1-0.2,0.1c-0.1,0-0.2,0.1-0.4,0.1c-0.2,0-0.4,0-0.7,0c-0.3,0-0.5,0-0.7,0
				c-0.2,0-0.3-0.1-0.4-0.1c-0.1,0-0.2-0.1-0.2-0.1c0-0.1-0.1-0.1-0.1-0.2V38.2c0-0.3,0.1-0.6,0.3-0.7c0.2-0.2,0.4-0.2,0.7-0.2h3.2
				c0.3,0,0.6,0,0.9,0c0.3,0,0.6,0.1,1,0.2c0.4,0.1,0.8,0.2,1.2,0.4c0.4,0.2,0.8,0.5,1.1,0.8c0.3,0.3,0.5,0.7,0.7,1.2
				c0.2,0.4,0.2,0.9,0.2,1.5C32.3,42.1,32.2,42.8,32,43.3z M42.4,50.2c0,0.1,0,0.2-0.1,0.3c0,0.1-0.1,0.1-0.1,0.2
				c0,0-0.1,0.1-0.2,0.1h-6.8c-0.2,0-0.4-0.1-0.6-0.2c-0.2-0.1-0.2-0.4-0.2-0.7V38.1c0-0.3,0.1-0.5,0.2-0.7c0.2-0.1,0.3-0.2,0.6-0.2
				H42c0.1,0,0.1,0,0.2,0.1c0.1,0,0.1,0.1,0.1,0.2c0,0.1,0.1,0.2,0.1,0.3c0,0.1,0,0.3,0,0.5c0,0.2,0,0.4,0,0.5c0,0.1,0,0.2-0.1,0.3
				c0,0.1-0.1,0.1-0.1,0.2c0,0-0.1,0.1-0.2,0.1h-4.8v3.3h4.1c0.1,0,0.1,0,0.2,0.1c0.1,0,0.1,0.1,0.1,0.2c0,0.1,0.1,0.2,0.1,0.3
				c0,0.1,0,0.3,0,0.5c0,0.2,0,0.4,0,0.5c0,0.1,0,0.2-0.1,0.3c0,0.1-0.1,0.1-0.1,0.2c-0.1,0-0.1,0.1-0.2,0.1h-4.1v3.8H42
				c0.1,0,0.1,0,0.2,0.1c0.1,0,0.1,0.1,0.1,0.2c0,0.1,0.1,0.2,0.1,0.3c0,0.1,0,0.3,0,0.5C42.5,49.9,42.4,50,42.4,50.2z M53.8,50.7
				c-0.2,0-0.5,0-0.6-0.1c-0.2,0-0.3-0.1-0.5-0.3c-0.1-0.1-0.3-0.3-0.4-0.5c-0.1-0.2-0.3-0.5-0.5-0.8l-3.4-6.3
				c-0.2-0.4-0.4-0.8-0.6-1.2c-0.2-0.4-0.4-0.9-0.5-1.3h0c0,0.5,0.1,1,0.1,1.5c0,0.5,0,1,0,1.5v7.1c0,0.1,0,0.1-0.1,0.2
				c0,0.1-0.1,0.1-0.2,0.1c-0.1,0-0.2,0.1-0.4,0.1c-0.2,0-0.4,0-0.6,0c-0.2,0-0.4,0-0.6,0c-0.2,0-0.3-0.1-0.4-0.1
				c-0.1,0-0.2-0.1-0.2-0.1c0-0.1-0.1-0.1-0.1-0.2V38.2c0-0.3,0.1-0.6,0.3-0.7c0.2-0.2,0.4-0.2,0.7-0.2h1.5c0.3,0,0.5,0,0.7,0.1
				c0.2,0,0.3,0.1,0.5,0.2c0.1,0.1,0.3,0.3,0.4,0.4c0.1,0.2,0.3,0.4,0.4,0.7l2.6,4.9c0.2,0.3,0.3,0.6,0.5,0.9
				c0.1,0.3,0.3,0.6,0.4,0.9c0.1,0.3,0.3,0.6,0.4,0.9c0.1,0.3,0.3,0.6,0.4,0.8h0c0-0.5,0-1,0-1.5c0-0.5,0-1,0-1.5v-6.3
				c0-0.1,0-0.1,0.1-0.2c0-0.1,0.1-0.1,0.2-0.1c0.1,0,0.2-0.1,0.4-0.1c0.2,0,0.4,0,0.6,0c0.2,0,0.4,0,0.6,0c0.2,0,0.3,0,0.4,0.1
				c0.1,0,0.2,0.1,0.2,0.1c0,0.1,0,0.1,0,0.2v12.1c0,0.2,0,0.3-0.1,0.4c-0.1,0.1-0.1,0.2-0.2,0.3c-0.1,0.1-0.2,0.1-0.3,0.2
				c-0.1,0-0.3,0.1-0.4,0.1H53.8z M57,58.2c-1,0-1.8-0.8-1.8-1.8c0-1,0.8-1.8,1.8-1.8c1,0,1.8,0.8,1.8,1.8
				C58.8,57.3,58,58.2,57,58.2z M57,33.7c-1,0-1.8-0.8-1.8-1.8c0-1,0.8-1.8,1.8-1.8c1,0,1.8,0.8,1.8,1.8C58.8,32.9,58,33.7,57,33.7z
				" class="colorb5b0b0 svgShape"></path><circle cx="57" cy="31.9" r=".9" fill="#b8d478" class="colorb5b0b0 svgShape"></circle><path fill="#b8d478" d="M17.2 40.5c-.3-.4-.6-.7-1.1-1-.4-.2-1-.3-1.7-.3-.7 0-1.2.1-1.7.4-.5.3-.8.6-1.1 1-.3.4-.5.9-.6 1.5-.1.6-.2 1.2-.2 1.8 0 .7.1 1.4.2 2 .1.6.3 1.1.6 1.5.3.4.6.7 1.1 1 .4.2 1 .3 1.7.3.7 0 1.2-.1 1.7-.4.5-.2.8-.6 1.1-1 .3-.4.5-.9.6-1.5.1-.6.2-1.2.2-1.8 0-.7-.1-1.4-.2-1.9C17.6 41.5 17.4 41 17.2 40.5zM7 55.4c-.5 0-.9.4-.9.9 0 .5.4.9.9.9s.9-.4.9-.9C7.9 55.8 7.5 55.4 7 55.4zM28.6 39.7c-.2-.2-.5-.2-.8-.3-.3 0-.5-.1-.8-.1h-1.2v4.6h1.2c.4 0 .8-.1 1.1-.2.3-.1.5-.3.7-.5.2-.2.3-.5.4-.8s.1-.6.1-1c0-.5-.1-.9-.2-1.2C29 40.1 28.8 39.8 28.6 39.7zM11.5 26.6l16-14c1.1 1.3 2.7 2.1 4.5 2.1 1.8 0 3.5-.8 4.5-2.1l16 14h2.7L37.5 11.1c.3-.7.5-1.5.5-2.4 0-3.3-2.7-6-6-6-3.3 0-6 2.7-6 6 0 .9.2 1.7.5 2.4L8.7 26.6H11.5zM32 4.5c2.3 0 4.2 1.9 4.2 4.2 0 .8-.2 1.5-.6 2.1-.7 1.2-2.1 2.1-3.6 2.1-1.5 0-2.7-.8-3.5-1.9 0-.1-.1-.2-.2-.3 0 0 0 0 0 0 0 0 0 0 0 0-.3-.6-.5-1.3-.5-2C27.8 6.4 29.7 4.5 32 4.5z" class="colorb5b0b0 svgShape"></path><path fill="#b8d478" d="M34.1,8.7c0,1.2-0.9,2.1-2.1,2.1c-1.2,0-2.1-0.9-2.1-2.1c0-1.2,0.9-2.1,2.1-2.1C33.2,6.6,34.1,7.5,34.1,8.7z" class="colorb5b0b0 svgShape"></path></svg></g></svg>