<svg id="SvgjsSvg1001" width="288" height="288" xmlns="http://www.w3.org/2000/svg" version="1.1" xmlns:xlink="http://www.w3.org/1999/xlink" xmlns:svgjs="http://svgjs.com/svgjs"><defs id="SvgjsDefs1002"></defs><g id="SvgjsG1008"><svg xmlns="http://www.w3.org/2000/svg" viewBox="0 0 100 100" width="288" height="288"><path d="M86,22H21V14c-.2-6.59-9.79-6.63-10,0V86a5,5,0,0,0,10,0V28H31v4a5,5,0,0,0-5,5V53a5,5,0,0,0,5,5H77a5,5,0,0,0,5-5V37a5,5,0,0,0-4-4.9V28h8A3,3,0,0,0,86,22ZM19,23V86a3,3,0,0,1-6,0V14a3,3,0,0,1,6,0ZM80,37V53a3,3,0,0,1-3,3H31a3,3,0,0,1-3-3V37a3,3,0,0,1,3-3H77A3,3,0,0,1,80,37ZM33,32V28h2v4Zm4,0V28H72v4Zm37,0V28h2v4Zm12-6H21V24H86A1,1,0,0,1,86,26ZM38.13,38H33.9A2.89,2.89,0,0,0,31,40.86v9.23A2.89,2.89,0,0,0,33.9,53h4.23A2.89,2.89,0,0,0,41,50.09V40.86A2.89,2.89,0,0,0,38.13,38ZM39,50.09a.89.89,0,0,1-.88.89H33.9a.89.89,0,0,1-.89-.89V40.86A.89.89,0,0,1,33.9,40h4.23a.89.89,0,0,1,.88.89ZM50.13,38H44a1,1,0,0,0-1,1V53a1,1,0,0,0,2,0V46h5.12A2.89,2.89,0,0,0,53,43.09V40.86A2.9,2.9,0,0,0,50.13,38ZM51,43.09a.88.88,0,0,1-.89.88H45V40h5.12a.89.89,0,0,1,.89.89ZM77,39V53a1,1,0,0,1-1.87.5L69,42.74V53a1,1,0,0,1-2,0V39a1,1,0,0,1,1.87-.5L75,49.21V39A1,1,0,0,1,77,39ZM57,40v5h7a1,1,0,0,1,0,2H57v5h7a1,1,0,0,1,0,2H56a1,1,0,0,1-1-1V39a1,1,0,0,1,1-1h8a1,1,0,0,1,0,2Z" data-name="Layer 2" fill="#a9ca80" class="color000 svgShape"></path></svg></g></svg>