<svg id="SvgjsSvg1053" width="288" height="288" xmlns="http://www.w3.org/2000/svg" version="1.1" xmlns:xlink="http://www.w3.org/1999/xlink" xmlns:svgjs="http://svgjs.com/svgjs"><defs id="SvgjsDefs1054"></defs><g id="SvgjsG1055"><svg xmlns="http://www.w3.org/2000/svg" enable-background="new 0 0 50 50" viewBox="0 0 50 50" width="288" height="288"><path d="M30.89014 7.375c0 4.17999-2.65015 7.57001-5.91016 7.57001-3.25 0-5.8999-3.39001-5.8999-7.57001 0-3.88 2.32007-6.39001 5.8999-6.39001C28.57007.98499 30.89014 3.495 30.89014 7.375zM36.43018 21.125v4.22003H13.57007V21.125c0-1.29999.76001-2.47998 1.93994-2.98999 2.16016-.96002 4.36011-1.58002 6.58008-1.85999.88989.42999 1.86987.66998 2.88989.66998 1.01001 0 1.99023-.22998 2.88013-.65997 2.19995.27997 4.41992.89996 6.61987 1.84998C35.66016 18.65503 36.43018 19.82501 36.43018 21.125zM49 29.34503V31.565c0 1.10004-.8999 2-2 2H3c-1.10986 0-2-.89996-2-2v-2.21997c0-1.10004.89014-2 2-2h44C48.1001 27.34503 49 28.245 49 29.34503zM44.04004 35.565v12.45001c0 .54999-.44995 1-1 1H6.95007c-.54993 0-1-.45001-1-1V35.565H44.04004z" fill="#767fad" class="color000 svgShape"></path><path d="M17.09009 7.90503c.11987 2.69 1.15991 5.07996 2.73999 6.72998-1.72998.37-3.42993.91998-5.10986 1.65997-1.91016.83002-3.15015 2.72003-3.15015 4.83002v4.22003h-1.25l-.69995-12.12c-.08008-1.44.41992-2.85004 1.36987-3.85004.89014-.95001 2.09009-1.46997 3.39014-1.46997H17.09009zM40.38013 13.22504l-.69995 12.12h-1.25V21.125c0-2.08997-1.22998-3.97998-3.16016-4.83002-1.69995-.72998-3.40991-1.27997-5.13989-1.65997 1.59009-1.65002 2.62988-4.03998 2.75-6.72998h2.75c1.29004 0 2.48999.51996 3.38989 1.46997C39.97021 10.375 40.45996 11.78503 40.38013 13.22504z" fill="#767fad" class="color000 svgShape"></path></svg></g></svg>