<svg id="SvgjsSvg1011" width="288" height="288" xmlns="http://www.w3.org/2000/svg" version="1.1" xmlns:xlink="http://www.w3.org/1999/xlink" xmlns:svgjs="http://svgjs.com/svgjs"><defs id="SvgjsDefs1012"></defs><g id="SvgjsG1013"><svg xmlns="http://www.w3.org/2000/svg" enable-background="new 0 0 64 64" viewBox="0 0 64 64" width="288" height="288"><path d="M39 9c0 2.7568359 2.2431641 5 5 5s5-2.2431641 5-5-2.2431641-5-5-5S39 6.2431641 39 9zM44 6c1.6542969 0 3 1.3457031 3 3s-1.3457031 3-3 3-3-1.3457031-3-3S42.3457031 6 44 6zM28 48h26c.5522461 0 1-.4477539 1-1s-.4477539-1-1-1H28c-.5522461 0-1 .4477539-1 1S27.4477539 48 28 48z" fill="#b4d47e" class="color000 svgShape"></path><path d="M25,30h13h12h11c0.5522461,0,1-0.4477539,1-1V3c0-0.5522461-0.4477539-1-1-1H25c-0.5522461,0-1,0.4477539-1,1v22.0253296C11.7803955,25.5511475,2,35.6532593,2,48c0,0.071167,0.0263672,0.133606,0.0405273,0.2005615c-0.001709,0.0275879-0.0027466,0.0553589-0.0042114,0.0829468c-0.0223389,0.0999146-0.0234985,0.1976929-0.0150757,0.2976074C2.0167236,48.7214355,2,48.8586426,2,49c0,7.168457,5.831543,13,13,13c4.4355469,0,8.5830078-2.284668,10.9614258-6H42c0.3149414,0,0.6113281-0.1479492,0.7998047-0.3999023L45,52.6665039l2.2001953,2.9335938C47.3886719,55.8520508,47.6850586,56,48,56h9c0.3789063,0,0.7250977-0.2138672,0.8945313-0.5527344l4-8C61.9638672,47.3085938,62,47.1552734,62,47v-4c0-0.5522461-0.4477539-1-1-1H25.9614258C23.5830078,38.284668,19.4355469,36,15,36c-3.7192383,0-7.069458,1.5783081-9.4412231,4.0901489C8.5698242,32.7169189,15.652832,27.4466553,24,27.0506592V29C24,29.5522461,24.4477539,30,25,30z M15,38c3.9194336,0,7.5727539,2.1079102,9.5341797,5.5004883C24.7128906,43.8095703,25.0429688,44,25.3999023,44H60v2.7641602L56.3818359,54H48.5l-2.7001953-3.6000977c-0.3769531-0.5039063-1.2226563-0.5039063-1.5996094,0L41.5,54H25.3999023c-0.3569336,0-0.6870117,0.1904297-0.8657227,0.4995117C22.5727539,57.8920898,18.9194336,60,15,60c-5.7153931,0-10.4227295-4.3824463-10.9474487-9.9629517C4.9802856,50.335083,5.9848633,50.5019531,7,50.5019531c1.0708008,0,2.1317139-0.182373,3.0999146-0.5139771C10.5600586,52.2730713,12.5814819,54,15,54c2.7568359,0,5-2.2431641,5-5s-2.2431641-5-5-5c-2.3414917,0-4.2976074,1.6243286-4.8383179,3.8010254c-1.7337036,0.8760986-4.3043213,0.9127808-6.1063232,0.1062622C4.6057739,42.3530884,9.3034058,38,15,38z M12,49c0-1.6542969,1.3457031-3,3-3s3,1.3457031,3,3s-1.3457031,3-3,3S12,50.6542969,12,49z M39,28v-5c0-2.7568359,2.2431641-5,5-5s5,2.2431641,5,5v5H39z M26,4h18h16v24h-9v-5c0-3.8598633-3.1401367-7-7-7s-7,3.1401367-7,7v5H26V4z" fill="#b4d47e" class="color000 svgShape"></path></svg></g></svg>