<svg id="SvgjsSvg1011" width="288" height="288" xmlns="http://www.w3.org/2000/svg" version="1.1" xmlns:xlink="http://www.w3.org/1999/xlink" xmlns:svgjs="http://svgjs.com/svgjs"><defs id="SvgjsDefs1012"></defs><g id="SvgjsG1013"><svg xmlns="http://www.w3.org/2000/svg" data-name="Layer 1" viewBox="0 0 32 32" width="288" height="288"><path d="M30.478,13.211a5.566,5.566,0,0,1-1.036-1.579,5.8,5.8,0,0,1-.1-1.967,4.58,4.58,0,0,0-.5-2.994,4.6,4.6,0,0,0-2.712-1.406,5.729,5.729,0,0,1-1.821-.7,5.663,5.663,0,0,1-1.205-1.5A4.608,4.608,0,0,0,20.906.9a4.544,4.544,0,0,0-2.964.451A5.991,5.991,0,0,1,16,1.87a5.991,5.991,0,0,1-1.941-.516A4.543,4.543,0,0,0,11.095.9,4.606,4.606,0,0,0,8.9,3.068a5.682,5.682,0,0,1-1.205,1.5,5.743,5.743,0,0,1-1.82.7A4.6,4.6,0,0,0,3.161,6.671a4.577,4.577,0,0,0-.5,2.993,5.807,5.807,0,0,1-.1,1.968,5.566,5.566,0,0,1-1.036,1.579A4.638,4.638,0,0,0,.13,16a4.638,4.638,0,0,0,1.392,2.789,5.566,5.566,0,0,1,1.036,1.579,5.8,5.8,0,0,1,.1,1.967,4.58,4.58,0,0,0,.5,2.994,4.6,4.6,0,0,0,2.712,1.406,5.729,5.729,0,0,1,1.821.7,5.663,5.663,0,0,1,1.205,1.5A4.608,4.608,0,0,0,11.094,31.1a4.546,4.546,0,0,0,2.964-.451A5.991,5.991,0,0,1,16,30.13a5.991,5.991,0,0,1,1.941.516,6.462,6.462,0,0,0,2.212.565,2.423,2.423,0,0,0,.751-.114A4.606,4.606,0,0,0,23.1,28.932a5.682,5.682,0,0,1,1.205-1.5,5.743,5.743,0,0,1,1.82-.7,4.6,4.6,0,0,0,2.714-1.407,4.577,4.577,0,0,0,.5-2.993,5.807,5.807,0,0,1,.1-1.968,5.566,5.566,0,0,1,1.036-1.579A4.638,4.638,0,0,0,31.87,16,4.638,4.638,0,0,0,30.478,13.211ZM29.7,18.157a6.321,6.321,0,0,0-1.212,1.9,6.585,6.585,0,0,0-.152,2.327,3.874,3.874,0,0,1-.308,2.354,3.9,3.9,0,0,1-2.165,1.029,6.48,6.48,0,0,0-2.149.854,6.423,6.423,0,0,0-1.457,1.765c-.512.792-1,1.54-1.665,1.757a3.829,3.829,0,0,1-2.3-.434A6.656,6.656,0,0,0,16,29.13a6.656,6.656,0,0,0-2.3.582,3.832,3.832,0,0,1-2.3.434c-.668-.217-1.152-.965-1.664-1.757a6.431,6.431,0,0,0-1.457-1.765,6.473,6.473,0,0,0-2.15-.854,3.9,3.9,0,0,1-2.163-1.028,3.877,3.877,0,0,1-.308-2.355,6.578,6.578,0,0,0-.152-2.326,6.321,6.321,0,0,0-1.212-1.9A3.915,3.915,0,0,1,1.13,16,3.915,3.915,0,0,1,2.3,13.843a6.321,6.321,0,0,0,1.212-1.9,6.585,6.585,0,0,0,.152-2.327,3.874,3.874,0,0,1,.308-2.354A3.9,3.9,0,0,1,6.134,6.229a6.48,6.48,0,0,0,2.149-.854A6.423,6.423,0,0,0,9.739,3.611c.512-.792,1-1.54,1.665-1.757a3.824,3.824,0,0,1,2.3.434A6.656,6.656,0,0,0,16,2.87a6.656,6.656,0,0,0,2.3-.582,3.825,3.825,0,0,1,2.3-.434c.668.217,1.152.965,1.664,1.757a6.431,6.431,0,0,0,1.457,1.765,6.473,6.473,0,0,0,2.15.854,3.9,3.9,0,0,1,2.163,1.028,3.877,3.877,0,0,1,.308,2.355,6.578,6.578,0,0,0,.152,2.326,6.321,6.321,0,0,0,1.212,1.9A3.915,3.915,0,0,1,30.87,16,3.915,3.915,0,0,1,29.7,18.157ZM16,5A11,11,0,1,0,27,16,11.012,11.012,0,0,0,16,5Zm0,21A10,10,0,1,1,26,16,10.011,10.011,0,0,1,16,26Zm4.489-12.4-1.708-.248a.679.679,0,0,1-.512-.372l-.764-1.548a1.68,1.68,0,0,0-3.012,0L13.73,12.98a.68.68,0,0,1-.512.371l-1.708.248a1.679,1.679,0,0,0-.931,2.864l1.236,1.206a.677.677,0,0,1,.2.6l-.292,1.7a1.68,1.68,0,0,0,2.437,1.771l1.527-.8a.683.683,0,0,1,.632,0l1.528.8a1.68,1.68,0,0,0,2.437-1.771l-.292-1.7a.676.676,0,0,1,.2-.6l1.235-1.205a1.68,1.68,0,0,0-.931-2.865Zm.232,2.148-1.235,1.205A1.676,1.676,0,0,0,19,18.44l.292,1.7a.68.68,0,0,1-.986.717l-1.528-.8a1.676,1.676,0,0,0-1.563,0l-1.527.8a.68.68,0,0,1-.986-.717L13,18.44a1.674,1.674,0,0,0-.483-1.486l-1.235-1.206a.679.679,0,0,1,.376-1.158l1.708-.248a1.677,1.677,0,0,0,1.265-.919l.764-1.548a.7.7,0,0,1,1.219,0l.764,1.547a1.676,1.676,0,0,0,1.265.92l1.708.248a.679.679,0,0,1,.376,1.158Z" fill="#99c365" class="color000 svgShape"></path></svg></g></svg>